<?xml version="1.0" encoding="UTF-8" standalone="no"?>
<!DOCTYPE svg PUBLIC "-//W3C//DTD SVG 1.1//EN" "http://www.w3.org/Graphics/SVG/1.1/DTD/svg11.dtd">
<svg version="1.1" xmlns="http://www.w3.org/2000/svg" xmlns:xlink="http://www.w3.org/1999/xlink" preserveAspectRatio="xMidYMid meet" viewBox="0 0 640 640" width="640" height="640"><defs><path d="M610 254.13L610 614.13L30 614.13L30 254.13L610 254.13Z" id="k1iH2S0GAL"></path><path d="M610 254.13L610 614.13L30 614.13L30 254.13L610 254.13Z" id="a5NtyZz5r"></path><path d="M608.53 255.63L608.53 275.63L31.53 275.63L31.53 255.63L608.53 255.63Z" id="a7D3wIiVKu"></path><path d="M608.53 593.13L608.53 613.13L31.53 613.13L31.53 593.13L608.53 593.13Z" id="aMVdaqTWg"></path><path d="M51.59 261.46L51.59 611.46L31.59 611.46L31.59 261.46L51.59 261.46Z" id="ehliwaMPB"></path><path d="M607.98 259.13L607.98 609.13L587.98 609.13L587.98 259.13L607.98 259.13Z" id="b1at5SfQX7"></path><path d="M587.98 275.63L587.98 593.13L51.59 593.13L51.59 275.63L587.98 275.63Z" id="c29AMQ4haO"></path><path d="M65.24 275.63L320 456.86L319.79 480.2L51.59 288.51L51.94 275.63L65.24 275.63Z" id="bGCBzSpCx"></path><path d="M65.24 275.63L320 456.86L319.79 480.2L51.59 288.51L51.94 275.63L65.24 275.63Z" id="c2szfjdBgV"></path><path d="M574.33 275.63L319.57 456.86L319.79 480.2L587.98 288.51L587.63 275.63L574.33 275.63Z" id="aEmw9okzE"></path><path d="M574.33 275.63L319.57 456.86L319.79 480.2L587.98 288.51L587.63 275.63L574.33 275.63Z" id="bWsbR38QP"></path><path d="M320.03 496.44C300.72 496.44 285.03 480.75 285.03 461.44C285.03 442.12 300.72 426.44 320.03 426.44C339.35 426.44 355.03 442.12 355.03 461.44C355.03 480.75 339.35 496.44 320.03 496.44Z" id="biNJvM3VY"></path><path d="M320.03 496.44C300.72 496.44 285.03 480.75 285.03 461.44C285.03 442.12 300.72 426.44 320.03 426.44C339.35 426.44 355.03 442.12 355.03 461.44C355.03 480.75 339.35 496.44 320.03 496.44Z" id="b7QSlMdfy"></path><path d="M342.53 456.7C342.53 477.36 320.03 487.62 320.03 488.19C320.03 488.19 320.03 488.19 320.03 488.19C320.03 487.62 297.53 477.36 297.53 456.7C297.53 449.23 302.57 443.19 308.78 443.19C315 443.19 320.03 448.49 320.03 455.95C320.03 448.49 325.07 443.19 331.28 443.19C337.5 443.19 342.53 449.24 342.53 456.7Z" id="d5n6B2nZ3"></path><path d="M342.53 456.7C342.53 477.36 320.03 487.62 320.03 488.19C320.03 488.19 320.03 488.19 320.03 488.19C320.03 487.62 297.53 477.36 297.53 456.7C297.53 449.23 302.57 443.19 308.78 443.19C315 443.19 320.03 448.49 320.03 455.95C320.03 448.49 325.07 443.19 331.28 443.19C337.5 443.19 342.53 449.24 342.53 456.7Z" id="c7TCZCgs1L"></path><path d="M598.96 267.5L598.96 288.05L574.01 288.05L574.01 267.5L598.96 267.5Z" id="ditwdYdNg"></path><path d="M64.77 263.16L64.77 288.09L45.91 288.09L45.91 263.16L64.77 263.16Z" id="aNqRy78WB"></path></defs><g><g><g><use xlink:href="#k1iH2S0GAL" opacity="1" fill="#d7ebff" fill-opacity="1"></use><g><use xlink:href="#k1iH2S0GAL" opacity="1" fill-opacity="0" stroke="#000000" stroke-width="1" stroke-opacity="0"></use></g></g><g><use xlink:href="#a5NtyZz5r" opacity="1" fill="#000000" fill-opacity="0"></use><g><use xlink:href="#a5NtyZz5r" opacity="1" fill-opacity="0" stroke="#070f0e" stroke-width="3" stroke-opacity="1"></use></g></g><g><use xlink:href="#a7D3wIiVKu" opacity="1" fill="#d4cce8" fill-opacity="1"></use><g><use xlink:href="#a7D3wIiVKu" opacity="1" fill-opacity="0" stroke="#000000" stroke-width="1" stroke-opacity="0"></use></g></g><g><use xlink:href="#aMVdaqTWg" opacity="1" fill="#d4cce8" fill-opacity="1"></use><g><use xlink:href="#aMVdaqTWg" opacity="1" fill-opacity="0" stroke="#000000" stroke-width="1" stroke-opacity="0"></use></g></g><g><use xlink:href="#ehliwaMPB" opacity="1" fill="#d4cce8" fill-opacity="1"></use><g><use xlink:href="#ehliwaMPB" opacity="1" fill-opacity="0" stroke="#000000" stroke-width="1" stroke-opacity="0"></use></g></g><g><use xlink:href="#b1at5SfQX7" opacity="1" fill="#d4cce8" fill-opacity="1"></use><g><use xlink:href="#b1at5SfQX7" opacity="1" fill-opacity="0" stroke="#000000" stroke-width="1" stroke-opacity="0"></use></g></g><g><use xlink:href="#c29AMQ4haO" opacity="1" fill="#000000" fill-opacity="0"></use><g><use xlink:href="#c29AMQ4haO" opacity="1" fill-opacity="0" stroke="#000000" stroke-width="2" stroke-opacity="1"></use></g></g><g><use xlink:href="#bGCBzSpCx" opacity="1" fill="#d4cce8" fill-opacity="1"></use><g><use xlink:href="#bGCBzSpCx" opacity="1" fill-opacity="0" stroke="#000000" stroke-width="1" stroke-opacity="0"></use></g></g><g><use xlink:href="#c2szfjdBgV" opacity="1" fill="#000000" fill-opacity="0"></use><g><use xlink:href="#c2szfjdBgV" opacity="1" fill-opacity="0" stroke="#050807" stroke-width="2" stroke-opacity="1"></use></g></g><g><use xlink:href="#aEmw9okzE" opacity="1" fill="#d4cce8" fill-opacity="1"></use><g><use xlink:href="#aEmw9okzE" opacity="1" fill-opacity="0" stroke="#000000" stroke-width="1" stroke-opacity="0"></use></g></g><g><use xlink:href="#bWsbR38QP" opacity="1" fill="#000000" fill-opacity="0"></use><g><use xlink:href="#bWsbR38QP" opacity="1" fill-opacity="0" stroke="#050807" stroke-width="2" stroke-opacity="1"></use></g></g><g><use xlink:href="#biNJvM3VY" opacity="1" fill="#d4cce8" fill-opacity="1"></use><g><use xlink:href="#biNJvM3VY" opacity="1" fill-opacity="0" stroke="#000000" stroke-width="1" stroke-opacity="0"></use></g></g><g><use xlink:href="#b7QSlMdfy" opacity="1" fill="#000000" fill-opacity="0"></use><g><use xlink:href="#b7QSlMdfy" opacity="1" fill-opacity="0" stroke="#000000" stroke-width="2" stroke-opacity="1"></use></g></g><g><use xlink:href="#d5n6B2nZ3" opacity="1" fill="#b9d0e7" fill-opacity="1"></use><g><use xlink:href="#d5n6B2nZ3" opacity="1" fill-opacity="0" stroke="#000000" stroke-width="1" stroke-opacity="0"></use></g></g><g><use xlink:href="#c7TCZCgs1L" opacity="1" fill="#000000" fill-opacity="0"></use><g><use xlink:href="#c7TCZCgs1L" opacity="1" fill-opacity="0" stroke="#040807" stroke-width="1" stroke-opacity="1"></use></g></g><g><use xlink:href="#ditwdYdNg" opacity="1" fill="#d4cce8" fill-opacity="1"></use><g><use xlink:href="#ditwdYdNg" opacity="1" fill-opacity="0" stroke="#000000" stroke-width="1" stroke-opacity="0"></use></g></g><g><use xlink:href="#aNqRy78WB" opacity="1" fill="#d4cce8" fill-opacity="1"></use><g><use xlink:href="#aNqRy78WB" opacity="1" fill-opacity="0" stroke="#000000" stroke-width="1" stroke-opacity="0"></use></g></g></g></g></svg>