<?xml version="1.0" encoding="UTF-8" standalone="no"?>
<!DOCTYPE svg PUBLIC "-//W3C//DTD SVG 1.1//EN" "http://www.w3.org/Graphics/SVG/1.1/DTD/svg11.dtd">
<svg version="1.1" xmlns="http://www.w3.org/2000/svg" xmlns:xlink="http://www.w3.org/1999/xlink" preserveAspectRatio="xMidYMid meet" viewBox="0 0 610 390" width="610" height="390"><defs><path d="M15 15L595 15L595 375L15 375L15 15Z" id="lpygvkbPT"></path><path d="M16.53 16.5L593.53 16.5L593.53 36.5L16.53 36.5L16.53 16.5Z" id="cDjs5lebQ"></path><path d="M16.53 354L593.53 354L593.53 374L16.53 374L16.53 354Z" id="al3KICNLL"></path><path d="M16.59 22.33L36.59 22.33L36.59 372.33L16.59 372.33L16.59 22.33Z" id="d9yZ93uta"></path><path d="M572.98 20L592.98 20L592.98 370L572.98 370L572.98 20Z" id="b1yZ3MkeFh"></path><path d="M36.59 36.5L572.98 36.5L572.98 354L36.59 354L36.59 36.5Z" id="c3q1PMsjAA"></path><path d="" id="a2pH7o0On0"></path><path d="M36.94 36.5L50.24 36.5L305 217.73L304.79 241.07L36.59 49.38L36.94 36.5Z" id="kRzOPk1jB"></path><path d="M572.63 36.5L559.33 36.5L304.57 217.73L304.79 241.07L572.98 49.38L572.63 36.5Z" id="ceijGe7mn"></path><path d="M340.03 222.31C340.03 241.62 324.35 257.31 305.03 257.31C285.72 257.31 270.03 241.62 270.03 222.31C270.03 202.99 285.72 187.31 305.03 187.31C324.35 187.31 340.03 202.99 340.03 222.31Z" id="b2dRdD9dEg"></path><path d="M316.28 204.06C322.5 204.06 327.53 210.11 327.53 217.57C327.53 238.23 305.03 248.49 305.03 249.06C305.03 249.06 305.03 249.06 305.03 249.06C305.03 248.49 282.53 238.23 282.53 217.57C282.53 210.1 287.57 204.06 293.78 204.06C300 204.06 305.03 209.36 305.03 216.82C305.03 209.36 310.07 204.06 316.28 204.06Z" id="clAkcR4H4"></path><path d="M559.01 28.37L583.96 28.37L583.96 48.92L559.01 48.92L559.01 28.37Z" id="a7fgeHPxXP"></path><path d="M30.91 24.03L49.77 24.03L49.77 48.96L30.91 48.96L30.91 24.03Z" id="b3wP5rVEXS"></path></defs><g><g><g><use xlink:href="#lpygvkbPT" opacity="1" fill="#d7ebff" fill-opacity="1"></use><g><use xlink:href="#lpygvkbPT" opacity="1" fill-opacity="0" stroke="#070f0e" stroke-width="3" stroke-opacity="1"></use></g></g><g><use xlink:href="#cDjs5lebQ" opacity="1" fill="#d4cce8" fill-opacity="1"></use></g><g><use xlink:href="#al3KICNLL" opacity="1" fill="#d4cce8" fill-opacity="1"></use></g><g><use xlink:href="#d9yZ93uta" opacity="1" fill="#d4cce8" fill-opacity="1"></use></g><g><use xlink:href="#b1yZ3MkeFh" opacity="1" fill="#d4cce8" fill-opacity="1"></use></g><g><g><use xlink:href="#c3q1PMsjAA" opacity="1" fill-opacity="0" stroke="#000000" stroke-width="2" stroke-opacity="1"></use></g></g><g><g><use xlink:href="#a2pH7o0On0" opacity="1" fill-opacity="0" stroke="#050807" stroke-width="1" stroke-opacity="1"></use></g></g><g><use xlink:href="#kRzOPk1jB" opacity="1" fill="#d4cce8" fill-opacity="1"></use><g><use xlink:href="#kRzOPk1jB" opacity="1" fill-opacity="0" stroke="#050807" stroke-width="2" stroke-opacity="1"></use></g></g><g><use xlink:href="#ceijGe7mn" opacity="1" fill="#d4cce8" fill-opacity="1"></use><g><use xlink:href="#ceijGe7mn" opacity="1" fill-opacity="0" stroke="#050807" stroke-width="2" stroke-opacity="1"></use></g></g><g><use xlink:href="#b2dRdD9dEg" opacity="1" fill="#d4cce8" fill-opacity="1"></use><g><use xlink:href="#b2dRdD9dEg" opacity="1" fill-opacity="0" stroke="#000000" stroke-width="2" stroke-opacity="1"></use></g></g><g><use xlink:href="#clAkcR4H4" opacity="1" fill="#b9d0e7" fill-opacity="1"></use><g><use xlink:href="#clAkcR4H4" opacity="1" fill-opacity="0" stroke="#040807" stroke-width="1" stroke-opacity="1"></use></g></g><g><use xlink:href="#a7fgeHPxXP" opacity="1" fill="#d4cce8" fill-opacity="1"></use></g><g><use xlink:href="#b3wP5rVEXS" opacity="1" fill="#d4cce8" fill-opacity="1"></use></g></g></g></svg>